<?xml version="1.0" encoding="UTF-8" standalone="no"?>
<svg
   width="16"
   height="16"
   version="1.1"
   id="svg1"
   sodipodi:docname="Camera3D.svg"
   inkscape:version="1.3.2 (091e20ef0f, 2023-11-25)"
   xmlns:inkscape="http://www.inkscape.org/namespaces/inkscape"
   xmlns:sodipodi="http://sodipodi.sourceforge.net/DTD/sodipodi-0.dtd"
   xmlns="http://www.w3.org/2000/svg"
   xmlns:svg="http://www.w3.org/2000/svg">
  <defs
     id="defs1" />
  <sodipodi:namedview
     id="namedview1"
     pagecolor="#ffffff"
     bordercolor="#000000"
     borderopacity="0.25"
     inkscape:showpageshadow="2"
     inkscape:pageopacity="0.0"
     inkscape:pagecheckerboard="0"
     inkscape:deskcolor="#d1d1d1"
     inkscape:zoom="50.3125"
     inkscape:cx="7.9900621"
     inkscape:cy="8"
     inkscape:window-width="1920"
     inkscape:window-height="1002"
     inkscape:window-x="1080"
     inkscape:window-y="1178"
     inkscape:window-maximized="1"
     inkscape:current-layer="svg1" />
  <path
     fill="#fc7f7f"
     d="M9 2a3 3 0 0 0-3 2.777 3 3 0 1 0-3 5.047V12a1 1 0 0 0 1 1h6a1 1 0 0 0 1-1v-1l3 2V7l-3 2V7.23A3 3 0 0 0 9 2z"
     id="path1" />
  <path
     style="fill:#fc7f7f;fill-opacity:1;stroke-width:1"
     d="m 13.620264,14.25929 h 1.949139 c 0.143274,-0.15364 0.143274,-0.309887 0,-0.468734 h -1.945447 c -0.147627,0.14138 -0.137793,0.298747 -0.0037,0.468734 z"
     id="path4"
     sodipodi:nodetypes="ccccc" />
  <path
     style="fill:#fc7f7f;fill-opacity:1;stroke-width:1"
     d="m 14.821408,14.991544 v -1.949139 c -0.15364,-0.143273 -0.309887,-0.143273 -0.468733,0 v 1.945447 c 0.14138,0.147627 0.298746,0.137794 0.468733,0.0037 z"
     id="path4-3"
     sodipodi:nodetypes="ccccc" />
</svg>
