<?xml version="1.0" encoding="UTF-8" standalone="no"?>
<svg
   width="16"
   height="16"
   version="1.1"
   id="svg1"
   sodipodi:docname="Skeleton3D.svg"
   inkscape:version="1.4 (e7c3feb100, 2024-10-09)"
   xmlns:inkscape="http://www.inkscape.org/namespaces/inkscape"
   xmlns:sodipodi="http://sodipodi.sourceforge.net/DTD/sodipodi-0.dtd"
   xmlns="http://www.w3.org/2000/svg"
   xmlns:svg="http://www.w3.org/2000/svg">
  <defs
     id="defs1" />
  <sodipodi:namedview
     id="namedview1"
     pagecolor="#ffffff"
     bordercolor="#000000"
     borderopacity="0.25"
     inkscape:showpageshadow="2"
     inkscape:pageopacity="0.0"
     inkscape:pagecheckerboard="0"
     inkscape:deskcolor="#d1d1d1"
     inkscape:zoom="50"
     inkscape:cx="7.99"
     inkscape:cy="8"
     inkscape:window-width="1920"
     inkscape:window-height="1002"
     inkscape:window-x="1080"
     inkscape:window-y="1292"
     inkscape:window-maximized="1"
     inkscape:current-layer="svg1" />
  <path
     fill="#fc7f7f"
     d="M6 2a4 4 0 0 0-2 7.453V13a2 2 0 0 0 2 2h4a2 2 0 0 0 2-2V9.453A4 4 0 0 0 10 2zM5 5a1 1 0 0 1 0 2 1 1 0 0 1 0-2zm6 0a1 1 0 0 1 0 2 1 1 0 0 1 0-2zM7 7h2v1H7zM5 9h1v1h1V9h2v1h1V9h1v4h-1v-1H9v1H7v-1H6v1H5V9z"
     id="path1"
     style="fill:#957ffc;fill-opacity:1" />
</svg>
