<?xml version="1.0" encoding="UTF-8" standalone="no"?>
<!-- Created with Inkscape (http://www.inkscape.org/) -->

<svg
   width="166.56113mm"
   height="151.46321mm"
   viewBox="0 0 166.56113 151.46321"
   version="1.1"
   id="svg1"
   xmlns="http://www.w3.org/2000/svg"
   xmlns:svg="http://www.w3.org/2000/svg">
  <defs
     id="defs1" />
  <g
     id="layer1"
     transform="translate(-10.738515,-67.480395)">
    <path
       id="path3"
       style="fill:#fffdf7;fill-opacity:1;stroke:#000000;stroke-width:6.40654;stroke-linecap:round;stroke-linejoin:round;stroke-dasharray:none"
       d="M 110.74104,70.684058 A 35.676438,35.676438 0 0 0 79.610128,89.421415 35.676438,35.676438 0 0 0 70.783793,88.284534 35.676438,35.676438 0 0 0 36.741427,113.86695 c -12.725596,0.59867 -22.799642,11.01009 -22.799642,23.88898 0,8.43876 4.330876,15.81792 10.890808,20.08043 a 20.140312,20.140312 0 0 0 -2.742985,10.12341 20.140312,20.140312 0 0 0 20.170862,20.07836 20.140312,20.140312 0 0 0 7.913728,-1.66398 21.161251,21.161251 0 0 0 18.910991,11.68766 21.161251,21.161251 0 0 0 5.968628,-0.8723 31.786036,31.786036 0 0 0 28.945003,18.55081 31.786036,31.786036 0 0 0 31.26217,-26.56685 21.346874,21.346874 0 0 0 17.69401,-20.99717 l -5.1e-4,-0.13126 a 21.346874,21.346874 0 0 0 -1.06195,-6.43062 c 12.4432,-0.89025 22.20381,-11.18081 22.20381,-23.85849 0,-13.26617 -10.68017,-23.94686 -23.94634,-23.94686 h -4.44676 a 35.676438,35.676438 0 0 0 0.87902,-7.44915 l -5.2e-4,-0.21911 A 35.676438,35.676438 0 0 0 110.74104,70.684058 Z" />
  </g>
</svg>
