<?xml version="1.0" encoding="UTF-8" standalone="no"?>
<svg
   xml:space="preserve"
   width="16"
   height="16"
   version="1.0"
   viewBox="0 0 2.4 2.4"
   id="svg2"
   sodipodi:docname="AudioStreamPlayer3D.svg"
   inkscape:version="1.3.2 (091e20ef0f, 2023-11-25)"
   xmlns:inkscape="http://www.inkscape.org/namespaces/inkscape"
   xmlns:sodipodi="http://sodipodi.sourceforge.net/DTD/sodipodi-0.dtd"
   xmlns="http://www.w3.org/2000/svg"
   xmlns:svg="http://www.w3.org/2000/svg"><defs
     id="defs2" /><sodipodi:namedview
     id="namedview2"
     pagecolor="#ffffff"
     bordercolor="#000000"
     borderopacity="0.25"
     inkscape:showpageshadow="2"
     inkscape:pageopacity="0.0"
     inkscape:pagecheckerboard="0"
     inkscape:deskcolor="#d1d1d1"
     inkscape:zoom="133.75"
     inkscape:cx="12.609346"
     inkscape:cy="12.960748"
     inkscape:window-width="1920"
     inkscape:window-height="1002"
     inkscape:window-x="1080"
     inkscape:window-y="1178"
     inkscape:window-maximized="1"
     inkscape:current-layer="svg2" /><path
     fill="#fc7f7f"
     d="M1.252.15a.1.1 0 0 0-.082.03L.6.75H.318C.225.75.15.817.15.9v.6c0 .083.075.15.168.15H.6l.57.57c.066.067.18.02.18-.074V.256A.106.106 0 0 0 1.252.15"
     paint-order="markers stroke fill"
     id="path1" /><path
     fill="none"
     stroke="#fc7f7f"
     stroke-linecap="round"
     stroke-linejoin="round"
     stroke-width=".165"
     d="M1.575.675c.45.525 0 1.05 0 1.05m.3-1.35c.675.825 0 1.65 0 1.65"
     paint-order="markers stroke fill"
     id="path2" /><path
     style="fill:#fc7f7f;fill-opacity:1;stroke-width:0.15"
     d="M 2.0271081,2.2162696 H 2.319479 c 0.021491,-0.023046 0.021491,-0.046483 0,-0.07031 H 2.0276619 c -0.022144,0.021207 -0.020669,0.044812 -5.538e-4,0.07031 z"
     id="path4"
     sodipodi:nodetypes="ccccc" /><path
     style="fill:#fc7f7f;fill-opacity:1;stroke-width:0.15"
     d="M 2.2072797,2.3261078 V 2.0337369 c -0.023046,-0.021491 -0.046483,-0.021491 -0.07031,0 V 2.325554 c 0.021207,0.022144 0.044812,0.020669 0.07031,5.538e-4 z"
     id="path4-3"
     sodipodi:nodetypes="ccccc" /></svg>
